<?xml version="1.0" encoding="UTF-8"?>
<svg xmlns="http://www.w3.org/2000/svg" width="480" height="270" viewBox="0 0 480 270">
  <defs>
    <linearGradient id="bg" x1="0" y1="0" x2="0" y2="1">
      <stop offset="0%" stop-color="#eef2f8"/>
      <stop offset="100%" stop-color="#dbe4f3"/>
    </linearGradient>
    <linearGradient id="body" x1="0" y1="0" x2="0" y2="1">
      <stop offset="0%" stop-color="#fbbf24"/>
      <stop offset="100%" stop-color="#d97706"/>
    </linearGradient>
  </defs>
  <rect width="480" height="270" fill="url(#bg)"/>
  <!-- rails -->
  <rect x="0" y="210" width="480" height="8" fill="#64748b"/>
  <rect x="0" y="228" width="480" height="8" fill="#64748b"/>
  <rect x="0" y="218" width="480" height="10" fill="#334155" opacity="0.15"/>
  <!-- K920 thermit welder cart -->
  <rect x="90" y="120" width="300" height="88" rx="8" fill="url(#body)" stroke="#92400e" stroke-width="2"/>
  <rect x="110" y="95" width="120" height="30" rx="4" fill="#1e293b"/>
  <rect x="118" y="103" width="36" height="14" rx="2" fill="#22a94f"/>
  <rect x="160" y="103" width="36" height="14" rx="2" fill="#ef4444"/>
  <rect x="202" y="103" width="20" height="14" rx="2" fill="#94a3b8"/>
  <rect x="250" y="100" width="110" height="36" rx="4" fill="#334155"/>
  <text x="305" y="122" text-anchor="middle" font-family="Arial,sans-serif" font-size="16" fill="#fff" font-weight="700">K920</text>
  <circle cx="130" cy="208" r="22" fill="#1e293b" stroke="#475569" stroke-width="4"/>
  <circle cx="130" cy="208" r="10" fill="#64748b"/>
  <circle cx="350" cy="208" r="22" fill="#1e293b" stroke="#475569" stroke-width="4"/>
  <circle cx="350" cy="208" r="10" fill="#64748b"/>
  <rect x="170" y="145" width="140" height="50" rx="4" fill="#fef3c7" stroke="#d97706"/>
  <text x="240" y="168" text-anchor="middle" font-family="Arial,sans-serif" font-size="11" fill="#92400e" font-weight="600">Aluminothermic</text>
  <text x="240" y="183" text-anchor="middle" font-family="Arial,sans-serif" font-size="10" fill="#b45309">Rail Welding Unit</text>
  <text x="240" y="42" text-anchor="middle" font-family="Arial,sans-serif" font-size="13" fill="#0047AB" font-weight="700">MÁY HÀN THERMIT K920</text>
</svg>
